<svg xmlns="http://www.w3.org/2000/svg" xmlns:xlink="http://www.w3.org/1999/xlink" viewBox="0 0 486.81 492.86"><defs><style>.cls-1{fill:url(#未命名的渐变_11);}.cls-2{fill:url(#未命名的渐变_21);}.cls-3{fill:url(#未命名的渐变_29);}.cls-4{fill:url(#未命名的渐变_35);}.cls-5{fill:url(#未命名的渐变_41);}.cls-6{fill:url(#未命名的渐变_47);}</style><linearGradient id="未命名的渐变_11" x1="391.51" y1="360.77" x2="391.51" y2="545.99" gradientUnits="userSpaceOnUse"><stop offset="0.01" stop-color="#5077c0"/><stop offset="1" stop-color="#88b8f7"/></linearGradient><linearGradient id="未命名的渐变_21" x1="498.64" y1="53.13" x2="498.64" y2="544.91" gradientUnits="userSpaceOnUse"><stop offset="0" stop-color="#b3d1f3"/><stop offset="0.47" stop-color="#c6ddfd"/><stop offset="1" stop-color="#94bbe7"/></linearGradient><linearGradient id="未命名的渐变_29" x1="446.15" y1="54.41" x2="446.15" y2="541.83" gradientUnits="userSpaceOnUse"><stop offset="0" stop-color="#679ad5"/><stop offset="0.47" stop-color="#9cc0ea"/><stop offset="1" stop-color="#6393de"/></linearGradient><linearGradient id="未命名的渐变_35" x1="369.23" y1="62.3" x2="369.23" y2="534.5" gradientUnits="userSpaceOnUse"><stop offset="0" stop-color="#3d68b6"/><stop offset="0.38" stop-color="#4b7cbc"/><stop offset="1" stop-color="#315995"/></linearGradient><linearGradient id="未命名的渐变_41" x1="308.01" y1="82" x2="308.01" y2="512.94" gradientUnits="userSpaceOnUse"><stop offset="0" stop-color="#254983"/><stop offset="0.38" stop-color="#264a82"/><stop offset="1" stop-color="#1c3d6a"/></linearGradient><linearGradient id="未命名的渐变_47" x1="244.49" y1="132.84" x2="244.49" y2="481.78" gradientUnits="userSpaceOnUse"><stop offset="0" stop-color="#163561"/><stop offset="0.38" stop-color="#11305c"/><stop offset="1" stop-color="#0c2c54"/></linearGradient></defs><g id="图层_2" data-name="图层 2"><path class="cls-1" d="M437.84,361.14a82.41,82.41,0,0,0-18.51,11.47c-5.57,4.58-12.1,9.95-16,18-7.16,14.81-1.49,30.82,1,38.33,3.22,9.69,9.81,18.46,23,36,11.37,15.11,16,19.16,19.67,30,2.21,6.56,4.93,15,2,25-4.26,14.48-17.21,21-19.33,22-5.46,2.64-10.18,3-19.34,3.67a138.17,138.17,0,0,1-27.39-.7l-10.88-1.69a114.2,114.2,0,0,1-32.39-49.28c0-.09-.53-1.57-1-3-4.33-14-16.51-61.82,15-98.34C384.55,356.77,432.65,360.63,437.84,361.14Z" transform="translate(-187.3 -53.13)"/><path class="cls-2" d="M405.56,55.49a242.44,242.44,0,0,1,97.77,6.23c45.45,12.5,77.81,36.77,93.45,50.11C613.69,126.26,642,151,659.44,193.39c8.48,20.6,21.33,51.87,10.56,87.55-2.29,7.6-9.61,30.69-31.67,47.67-17.76,13.68-36.42,16.72-49.33,18.67-20.2,3-32.41.28-48.33-1-11.26-.92-56.11-3.66-100.67,14-14.58,5.77-48.78,19.84-72.67,54.33-6.32,9.13-18.07,26.53-20.33,51.67a85.72,85.72,0,0,0,4.33,37.66c8.31,23.18,24.73,36.14,31.61,41q-4-.46-8.19-1-4.44-.63-8.67-1.33A128.16,128.16,0,0,1,328,484c-1.58-5.2-10.83-37.72,1.44-74.2a141.85,141.85,0,0,1,11.12-24.33,174.54,174.54,0,0,1,25.55-35.34,178.06,178.06,0,0,1,40-31.11c16.25-9.33,30.16-14,46.89-19.55,7.34-2.45,7-2.08,33.11-10,19.81-6,29.72-9,33.45-10.45,11.5-4.37,28.3-10.91,45.88-24.77,10-7.87,20.18-15.9,28.23-30.56a88.1,88.1,0,0,0,10.44-42.11c-.1-22-8.45-37.74-12.78-45.67-1.93-3.53-11.19-20-32.69-36.86-27.27-21.34-54.77-28-84.42-34.8A352.46,352.46,0,0,0,405.56,55.49Z" transform="translate(-187.3 -53.13)"/><path class="cls-3" d="M353.86,66.63a229.67,229.67,0,0,1,97.25-11c16.37,1.69,41.94,4.55,70.89,19.33,13.37,6.83,35.91,18.66,54.56,43.78,8,10.74,20.18,27.63,22.88,52.67.86,7.93,2.93,29.91-9.55,51.55-4.34,7.53-8.86,12.26-13.33,16.89-7.3,7.55-21.24,19.92-53.73,33.11-7.39,3-5.11,1.73-47.39,15.11-35.35,11.2-43.64,14.18-54,18.89-12.94,5.89-23.14,10.53-35.33,19.34-4,2.91-23.25,17.09-40.67,43.11-9.68,14.46-20.93,31.26-25.11,56.66a125.6,125.6,0,0,0,6.89,64.23,127.35,127.35,0,0,0,36.67,51.55,81.1,81.1,0,0,1-22-6.22,169.34,169.34,0,0,1-24.45-29.78c-5.78-9-17.1-26.88-22.44-53.11-5.59-27.45-1.55-49.28.67-60.67a175.13,175.13,0,0,1,18.66-50.89,191.33,191.33,0,0,1,33.11-45.11,224.81,224.81,0,0,1,20.67-17.77c8.32-6.47,8.32-5.71,29.11-20,17.08-11.75,26-18.56,36.26-27.7,1.66-1.47,3.2-2.92,4.85-4.53,17.89-17.35,25.94-30.09,28.89-35.11C472,182.83,478.06,172.3,481,157c1.4-7.3,3.45-18.59,0-32.53a69,69,0,0,0-10.11-22.22c-12.15-17.49-29.71-24.41-42.11-29.12C398.43,61.65,370.2,63.87,353.86,66.63Z" transform="translate(-187.3 -53.13)"/><path class="cls-4" d="M302.5,91.78c-.6-1.39,14.85-9.68,29.67-16.34,12-5.37,17.94-8,26.66-10.16A108.74,108.74,0,0,1,396,62.94a112.27,112.27,0,0,1,39.83,12.34c10.83,5.7,22.6,11.9,31.5,24.83,13.3,19.3,11.47,40.87,10.84,48.33-2.62,30.77-21.12,51.57-33.67,65.67-18.07,20.31-40.35,35.54-68.33,54.67a241.44,241.44,0,0,0-24.5,18.5,173.62,173.62,0,0,0-32.34,37.66c-7.54,11.53-24.23,37.66-29.11,75.67a161.6,161.6,0,0,0,1.61,52.33,163.53,163.53,0,0,0,21,51,133.21,133.21,0,0,0,21.06,25.78c2.17,2.06,4,3.68,5.33,4.78-3.18-1.6-7.29-3.64-12.11-6-7.51-3.68-9.41-4.52-12.94-6.56a68.61,68.61,0,0,1-11.34-7.66c-1.19-1-4.39-3.85-10-11.17a153.9,153.9,0,0,1-11.16-16.67,166.73,166.73,0,0,1-14.45-31.5c-7.28-22.08-7.39-40.71-7.39-50.5,0-33,9.2-57.54,13.67-69.16,0,0,12.61-32.77,34.33-59,2.86-3.46,11.45-13.52,19.67-23,11.71-13.5,12.1-13.62,16.5-18.84,9.16-10.85,20.5-24.28,30.67-43.5,9-17.08,12.6-29.52,13.83-34.33a115.57,115.57,0,0,0,3.17-18.17c.52-5.84,1-11.15.16-16.83-2.37-16.22-14.11-26.62-14.94-27.33-12.59-10.84-28-10.57-37.64-10.42C317.85,84.19,303.09,93.14,302.5,91.78Z" transform="translate(-187.3 -53.13)"/><path class="cls-5" d="M233.74,159.83c-1-.93,9-14.12,22.15-28,5.93-6.25,10.77-10.76,20.44-19.78,11-10.22,15.48-13.78,20.23-17.11,5.93-4.16,10-7,16.22-9.33,9.7-3.68,18.7-3.75,24.89-3.56A63.48,63.48,0,0,1,365,88.44a44.39,44.39,0,0,1,21.67,23c3.37,8.22,3,15,2.66,23.5-.58,13.28-4,23.15-7.16,32A172.59,172.59,0,0,1,369,195.16c-7.06,12.33-14.48,21.64-32.22,43.34-16.91,20.67-18.93,20.89-29.34,34s-27.31,34.4-38.66,64.22a175.75,175.75,0,0,0-12.45,70c.42,12.71,2.21,52,28.89,88.67a143.13,143.13,0,0,0,15.11,17.55,145.8,145.8,0,0,1-35.77-29.11A166.43,166.43,0,0,1,233,424.5a176.87,176.87,0,0,1-6.22-58.67c1.61-27.38,9.13-47.59,13.55-59.22A256.77,256.77,0,0,1,258,269.94c7.82-13.73,9.75-14.56,23.33-37,10.72-17.71,14.72-25.79,18-35.33,3.46-10,4.31-16.5,5.35-24a53.67,53.67,0,0,0,0-17.36,30.2,30.2,0,0,0-2.17-7.67c-.8-1.81-3.58-8.05-9.83-11.67a22.92,22.92,0,0,0-13.34-2.66C257.68,135.67,235.17,161.17,233.74,159.83Z" transform="translate(-187.3 -53.13)"/><path class="cls-6" d="M242,149.61a50.56,50.56,0,0,1,17.17-13c4.15-1.88,9.68-4.28,17-3.67,1.46.12,11.7,1.13,18.83,9.17,3.09,3.48,7,9.9,6.67,25.33-.52,22.19-9.36,39.17-12.84,45.67-19.62,36.73-28.75,45.71-39.83,66.28-6.68,12.39-19.8,37.27-24,71.33-6.17,49.95,10.67,87.72,14.33,95.56a167.6,167.6,0,0,0,22.42,35.5A259.33,259.33,0,0,1,212,410.61c-10-21.31-31.16-73.77-22.78-138.78a250.14,250.14,0,0,1,12.11-50.22S215.44,179.7,242,149.61Z" transform="translate(-187.3 -53.13)"/></g></svg>